name not saved									
datacolumns 10
datarows 119
range 21.04 22.22
endheader									
time	ground_force1_vx	ground_force1_vy	ground_force1_vz	ground_force1_px	ground_force1_py	ground_force1_pz	ground_torque1_x	ground_torque1_y	ground_torque1_z
21.04	0	0	0	-0.10309527	0.88381092	-0.0225077	0	0	0
21.05	0	0	0	-0.09846388	0.88336146	-0.02283447	0	0	0
21.06	0	0	0	-0.09386585	0.88289941	-0.02316396	0	0	0
21.07	0	0	0	-0.08930867	0.8824449	-0.02350259	0	0	0
21.08	0	0	0	-0.08480075	0.88201467	-0.02385557	0	0	0
21.09	0	0	0	-0.08035179	0.88162084	-0.02422607	0	0	0
21.1	0	0	0	-0.07597281	0.88127069	-0.02461455	0	0	0
21.11	0	0	0	-0.07167555	0.88096711	-0.02501857	0	0	0
21.12	0	0	0	-0.0674715	0.88070939	-0.02543304	0	0	0
21.13	0	0	0	-0.06337088	0.88049428	-0.02585092	0	0	0
21.14	0	0	0	-0.05938147	0.88031688	-0.02626421	0	0	0
21.15	0	0	0	-0.05550781	0.88017151	-0.02666494	0	0	0
21.16	0	0	0	-0.05175082	0.88005243	-0.02704596	0	0	0
21.17	0	0	0	-0.04810776	0.87995447	-0.02740156	0	0	0
21.18	0	0	0	-0.04457272	0.87987345	-0.02772777	0	0	0
21.19	0	0	0	-0.04113726	0.8798065	-0.02802249	0	0	0
21.2	0	0	0	-0.03779116	0.87975209	-0.02828547	0	0	0
21.21	0	0	0	-0.03452328	0.87971009	-0.02851805	0	0	0
21.22	0	0	0	-0.03132224	0.8796816	-0.02872295	0	0	0
21.23	0	0	0	-0.02817692	0.87966872	-0.02890388	0	0	0
21.24	0	0	0	-0.02507677	0.8796742	-0.02906514	0	0	0
21.25	0	0	0	-0.02201192	0.87970104	-0.02921131	0	0	0
21.26	0	0	0	-0.01897338	0.87975211	-0.02934698	0	0	0
21.27	0	0	0	-0.01595312	0.87982967	-0.02947654	0	0	0
21.28	0	0	0	-0.01294428	0.87993504	-0.02960405	0	0	0
21.29	0	0	0	-0.00994143	0.88006832	-0.02973311	0	0	0
21.3	0	0	0	-0.0069407	0.88022847	-0.0298668	0	0	0
21.31	0.2141922193	0.3709918065	0	-0.00393967	0.88041361	-0.03000752	0	0	0
21.32	0.571060627	0.9891060202	0	-0.00093712	0.88062152	-0.03015693	0	0	0
21.33	0.9276055799	1.606659994	0	0.00206721	0.88085029	-0.03031575	0	0	0
21.34	1.283625127	2.223303938	0	0.00507299	0.88109894	-0.03048373	0	0	0
21.35	1.638917616	2.83868858	0	0.00807949	0.88136792	-0.03065964	0	0	0
21.36	1.993281804	3.452465358	0	0.01108586	0.88165925	-0.03084131	0	0	0
21.37	2.346516976	4.064286623	0	0.01409129	0.88197632	-0.03102589	0	0	0
21.38	2.698423056	4.673805832	0	0.01709516	0.88232352	-0.03121007	0	0	0
21.39	3.04880072	5.280677749	0	0.02009697	0.88270556	-0.0313905	0	0	0
21.4	3.397451511	5.884558634	0	0.02309631	0.88312692	-0.03156405	0	0	0
21.41	3.74417795	6.485106442	0	0.02609265	0.88359129	-0.03172811	0	0	0
21.42	4.088783647	7.081981017	0	0.02908524	0.88410124	-0.03188082	0	0	0
21.43	4.431073413	7.674844283	0	0.032073	0.88465808	-0.0320212	0	0	0
21.44	4.770853372	8.263360436	0	0.03505457	0.88526193	-0.03214926	0	0	0
21.45	5.107931069	8.847196134	0	0.03802852	0.88591211	-0.03226593	0	0	0
21.46	5.44211558	9.426020686	0	0.04099356	0.88660759	-0.03237295	0	0	0
21.47	5.773217619	9.999506239	0	0.04394896	0.88734754	-0.03247261	0	0	0
21.48	6.101049646	10.56732797	0	0.04689489	0.88813181	-0.03256729	0	0	0
21.49	6.425425974	11.12916425	0	0.04983264	0.88896114	-0.03265891	0	0	0
21.5	6.746162872	11.68469685	0	0.05276482	0.88983735	-0.03274843	0	0	0
21.51	7.063078672	12.23361112	0	0.05569532	0.8907632	-0.03283557	0	0	0
21.52	7.37599387	12.77559614	0	0.05862905	0.89174243	-0.03291875	0	0	0
21.53	7.684731226	13.31034493	0	0.06157161	0.89277958	-0.03299524	0	0	0
21.54	7.989115869	13.83755459	0	0.06452873	0.89388005	-0.03306144	0	0	0
21.55	8.288975391	14.35692652	0	0.06750561	0.89504992	-0.03311317	0	0	0
21.56	8.584139951	14.86816653	0	0.07050629	0.89629589	-0.03314585	0	0	0
21.57	8.874442362	15.37098506	0	0.07353297	0.8976249	-0.03315461	0	0	0
21.58	9.159718195	15.8650973	0	0.0765855	0.89904375	-0.03313415	0	0	0
21.59	9.439805866	16.35022337	0	0.07966092	0.90055844	-0.03307866	0	0	0
21.6	9.714546731	16.82608851	0	0.08275329	0.90217356	-0.03298166	0	0	0
21.61	9.983785173	17.29242317	0	0.08585384	0.90389186	-0.03283621	0	0	0
21.62	10.24736869	17.74896322	0	0.08895136	0.90571417	-0.03263544	0	0	0
21.63	10.505148	18.19545007	0	0.09203311	0.90763984	-0.03237331	0	0	0
21.64	10.75697707	18.63163082	0	0.09508583	0.90966737	-0.03204561	0	0	0
21.65	11.00271328	19.05725842	0	0.0980969	0.91179488	-0.03165067	0	0	0
21.66	11.24221744	19.47209179	0	0.10105529	0.91402035	-0.03118977	0	0	0
21.67	11.47535388	19.87589595	0	0.10395227	0.91634165	-0.03066716	0	0	0
21.68	11.70199056	20.2684422	0	0.10678189	0.91875634	-0.03008972	0	0	0
21.69	11.92199911	20.64950819	0	0.10954114	0.92126122	-0.02946619	0	0	0
21.7	12.13525492	21.01887808	0	0.1122297	0.92385198	-0.02880636	0	0	0
21.71	12.34163718	21.37634265	0	0.11484948	0.92652325	-0.0281201	0	0	0
21.72	12.54102901	21.72169943	0	0.11740389	0.92926894	-0.02741665	0	0	0
21.73	12.73331747	22.05475281	0	0.11989712	0.93208288	-0.02670407	0	0	0
21.74	12.91839365	22.37531415	0	0.12233342	0.93495946	-0.02598893	0	0	0
21.75	13.09615271	22.68320187	0	0.12471662	0.93789432	-0.02527629	0	0	0
21.76	13.26649396	22.97824159	0	0.12704984	0.94088484	-0.02456985	0	0	0
21.77	13.42932094	23.26026618	0	0.12933553	0.94393065	-0.02387229	0	0	0
21.78	13.58454141	23.52911591	0	0.13157574	0.94703401	-0.02318566	0	0	0
21.79	13.73206744	23.78463851	0	0.13377257	0.95020018	-0.02251164	0	0	0
21.8	13.87181549	24.02668923	0	0.13592849	0.95343752	-0.02185167	0	0	0
21.81	14.0037064	24.25513097	0	0.13804646	0.95675696	-0.02120689	0	0	0
21.82	14.12766545	24.46983436	0	0.14012983	0.96017076	-0.02057788	0	0	0
21.83	14.24362245	24.67067777	0	0.14218184	0.96369055	-0.01996437	0	0	0
21.84	14.35151171	24.85754745	0	0.1442051	0.96732524	-0.01936489	0	0	0
21.85	14.45127212	25.03033755	0	0.14620079	0.97107934	-0.01877661	0	0	0
21.86	14.54284718	25.1889502	0	0.1481681	0.97495185	-0.01819534	0	0	0
21.87	14.62618501	25.33329556	0	0.15010363	0.97893602	-0.01761587	0	0	0
21.88	14.70123842	25.46329187	0	0.15200125	0.98301992	-0.01703251	0	0	0
21.89	14.76796489	25.57886551	0	0.15385221	0.98718771	-0.0164397	0	0	0
21.9	14.82632662	25.679951	0	0.1556457	0.99142138	-0.0158327	0	0	0
21.91	14.87629057	25.7664911	0	0.15736981	0.99570274	-0.01520815	0	0	0
21.92	14.91782843	25.83843678	0	0.15901266	1.0000152	-0.01456433	0	0	0
21.93	14.95091667	25.8957473	0	0.16056358	1.00434482	-0.01390127	0	0	0
21.94	14.97553656	25.93839019	0	0.16201397	1.00868082	-0.01322046	0	0	0
21.95	14.99167414	25.9663413	0	0.16335786	1.01301566	-0.01252443	0	0	0
21.96	14.99932028	25.9795848	0	0.16459205	1.017345	-0.01181634	0	0	0
21.97	14.99847065	25.97811319	0	0.16571593	1.02166788	-0.01109961	0	0	0
21.98	14.98912572	25.9619273	0	0.16673098	1.0259867	-0.01037783	0	0	0
21.99	14.97129079	25.9310363	0	0.16764015	1.03030719	-0.00965491	0	0	0
22	14.94497596	25.88545769	0	0.16844726	1.03463796	-0.00893523	0	0	0
22.01	14.91019614	25.82521727	0	0.16915653	1.03898967	-0.00822366	0	0	0
22.02	14.86697103	25.75034918	0	0.16977242	1.04337387	-0.00752525	0	0	0
22.03	14.81532511	25.66089582	0	0.17029982	1.0478017	-0.00684489	0	0	0
22.04	14.75528763	25.55690785	0	0.17074423	1.05228266	-0.00618689	0	0	0
22.05	14.6868926	25.43844418	0	0.17111203	1.05682372	-0.00555495	0	0	0
22.06	14.61017875	25.30557191	0	0.17141061	1.06142863	-0.00495226	0	0	0
22.07	14.52518955	25.15836629	0	0.17164831	1.06609774	-0.00438173	0	0	0
22.08	14.43197313	24.99691071	0	0.17183425	1.07082831	-0.00384599	0	0	0
22.09	14.33058228	24.82129661	0	0.17197798	1.07561541	-0.00334723	0	0	0
22.1	14.22107444	24.63162346	0	0.17208892	1.08045314	-0.00288693	0	0	0
22.11	14.10351163	24.4279987	0	0.17217573	1.08533568	-0.00246549	0	0	0
22.12	13.97796044	24.21053767	0	0.17224562	1.09025803	-0.00208198	0	0	0
22.13	13.84449199	23.97936352	0	0.17230387	1.09521606	-0.00173411	0	0	0
22.14	13.70318186	23.73460721	0	0.17235339	1.10020615	-0.00141821	0	0	0
22.15	13.55411012	23.47640737	0	0.1723946	1.10522466	-0.00112959	0	0	0
22.16	13.39736118	23.20491025	0	0.17242553	1.11026787	-0.00086289	0	0	0
22.17	13.23302383	22.92026961	0	0.17244225	1.11533219	-0.0006126	0	0	0
22.18	13.06119116	22.62264669	0	0.17243938	1.12041456	-0.00037356	0	0	0
22.19	12.88196049	22.31221006	0	0.17241081	1.12551268	-0.00014145	0	0	0
22.2	12.69543334	21.98913557	0	0.1723504	1.13062479	8.689e-05	0	0	0
22.21	12.50171536	21.65360619	0	0.17225265	1.13574938	0.00031337	0	0	0
22.22	12.30091628	21.30581198	0	0.17211319	1.14088503	0.00053878	0	0	0
